<svg width="625" height="833" viewBox="0 0 625 833" fill="none" xmlns="http://www.w3.org/2000/svg">
<path d="M624 0H0V832H624V0Z" fill="white"/>
<path d="M104 0H0V104H104V0Z" fill="white"/>
<path d="M52.0084 0H0V52.0084H52.0084V0Z" fill="#F9DEB4"/>
<path d="M0 0C0 13.7935 5.47944 27.022 15.2329 36.7755C24.9864 46.529 38.2149 52.0084 52.0084 52.0084V0" fill="#44878D"/>
<path d="M104.017 0H52.0083V52.0084H104.017V0Z" fill="#B3C2C2"/>
<path d="M52.0083 52.0084C65.8018 52.0084 79.0303 46.529 88.7838 36.7755C98.5373 27.022 104.017 13.7935 104.017 0L52.0083 0" fill="#81AFB2"/>
<path d="M52.0084 52.0084H0V104.017H52.0084V52.0084Z" fill="#FEF7ED"/>
<path d="M0 104.017C0 90.2234 5.47944 76.9948 15.2329 67.2413C24.9864 57.4879 38.2149 52.0084 52.0084 52.0084V104.017" fill="#748F8F"/>
<path d="M104.017 52.0084H52.0083V104.017H104.017V52.0084Z" fill="#498A90"/>
<path d="M52.0083 52.0084C65.8018 52.0084 79.0303 57.4879 88.7838 67.2413C98.5373 76.9948 104.017 90.2234 104.017 104.017H52.0083" fill="#3E6464"/>
<path d="M208 0H104V104H208V0Z" fill="#F3B65A"/>
<path d="M104 0H208V104L104 0Z" fill="#FEF7EC"/>
<path d="M312 0H208V104H312V0Z" fill="white"/>
<path d="M260.008 0H208V52.0084H260.008V0Z" fill="#B8C6C6"/>
<path d="M260.008 0V52.0084H208L260.008 0Z" fill="#E9F1F2"/>
<path d="M312.017 0H260.008V52.0084H312.017V0Z" fill="#F8D49D"/>
<path d="M260.008 0L312.017 52.0084H260.008V0Z" fill="#EAEEEE"/>
<path d="M260.008 52.0084H208V104.017H260.008V52.0084Z" fill="#6C8989"/>
<path d="M208 52.0084H260.008L208 104.017V52.0084Z" fill="#F4BC66"/>
<path d="M312.017 52.0084H260.008V104.017H312.017V52.0084Z" fill="#F6C883"/>
<path d="M260.008 52.0084H312.017V104.017L260.008 52.0084Z" fill="#F9DEB3"/>
<path d="M416 0H312V104H416V0Z" fill="white"/>
<path d="M364.008 0H312V52.0084H364.008V0Z" fill="#6C8989"/>
<path d="M312 52.0084C312 38.2149 317.479 24.9864 327.233 15.2329C336.986 5.47944 350.215 0 364.008 0V13.0021C353.663 13.0021 343.742 17.1117 336.427 24.4268C329.112 31.7419 325.002 41.6633 325.002 52.0084" fill="#7AAAAE"/>
<path d="M416.017 0H364.009V52.0084H416.017V0Z" fill="#E9EDED"/>
<path d="M364.009 0C377.802 0 391.031 5.47944 400.784 15.2329C410.538 24.9864 416.017 38.2149 416.017 52.0084H403.015C403.015 41.6633 398.905 31.7419 391.59 24.4268C384.275 17.1117 374.354 13.0021 364.009 13.0021" fill="#F8D49C"/>
<path d="M364.008 52.0084H312V104.017H364.008V52.0084Z" fill="#A8C8CA"/>
<path d="M312 52.0084C312 65.8019 317.479 79.0305 327.233 88.7839C336.986 98.5374 350.215 104.017 364.008 104.017V91.0147C353.663 91.0147 343.742 86.9052 336.427 79.5901C329.112 72.2749 325.002 62.3535 325.002 52.0084" fill="#D4E3E5"/>
<path d="M416.017 52.0084H364.009V104.017H416.017V52.0084Z" fill="#A3B5B5"/>
<path d="M364.009 104.017C377.802 104.017 391.031 98.5374 400.784 88.7839C410.538 79.0305 416.017 65.8019 416.017 52.0084H403.015C403.015 62.3535 398.905 72.2749 391.59 79.5901C384.275 86.9052 374.354 91.0147 364.009 91.0147" fill="#9ABEC2"/>
<path d="M520 0H416V104H520V0Z" fill="#F9DCB0"/>
<path d="M520 0H416V104H520V0Z" fill="#416666"/>
<path d="M624 0H520V104H624V0Z" fill="#FFFEFE"/>
<path d="M624 0H520V104H624V0Z" fill="#F9D9A9"/>
<path d="M104 104H0V208H104V104Z" fill="white"/>
<path d="M52.0084 104H0V156.008H52.0084V104Z" fill="#F7D196"/>
<path d="M0 156.008C0 142.215 5.47944 128.986 15.2329 119.233C24.9864 109.479 38.2149 104 52.0084 104V156.008" fill="#A7B8B8"/>
<path d="M104.017 104H52.0083V156.008H104.017V104Z" fill="#ABC9CC"/>
<path d="M52.0083 104C65.8018 104 79.0303 109.479 88.7838 119.233C98.5373 128.986 104.017 142.215 104.017 156.008H52.0083" fill="#EAF1F2"/>
<path d="M52.0084 156.008H0V208.017H52.0084V156.008Z" fill="#85B1B5"/>
<path d="M0 156.008C0 169.802 5.47944 183.03 15.2329 192.784C24.9864 202.537 38.2149 208.017 52.0084 208.017V156.008" fill="#F5C77F"/>
<path d="M104.017 156.008H52.0083V208.017H104.017V156.008Z" fill="#F3BA63"/>
<path d="M52.0083 208.017C65.8018 208.017 79.0303 202.537 88.7838 192.784C98.5373 183.03 104.017 169.802 104.017 156.008H52.0083" fill="#DFEAEB"/>
<path d="M208 104H104V208H208V104Z" fill="white"/>
<path d="M156.008 104H104V156.008H156.008V104Z" fill="#93BABD"/>
<path d="M156.008 104V156.008H104L156.008 104Z" fill="#E6EFF0"/>
<path d="M208.017 104H156.008V156.008H208.017V104Z" fill="#F8D6A3"/>
<path d="M156.008 104L208.017 156.008H156.008V104Z" fill="#C6DBDC"/>
<path d="M156.008 156.008H104V208.017H156.008V156.008Z" fill="#3E848A"/>
<path d="M104 156.008H156.008L104 208.017V156.008Z" fill="#94A9A9"/>
<path d="M208.017 156.008H156.008V208.017H208.017V156.008Z" fill="#43878C"/>
<path d="M156.008 156.008H208.017V208.017L156.008 156.008Z" fill="#F2B251"/>
<path d="M312 104H208V208H312V104Z" fill="white"/>
<path d="M260.008 104H208V156.008H260.008V104Z" fill="#869E9E"/>
<path d="M260.008 104V156.008H208L260.008 104Z" fill="#E4E9E9"/>
<path d="M312.017 104H260.008V156.008H312.017V104Z" fill="#D5DDDD"/>
<path d="M260.008 104H312.017L260.008 156.008V104Z" fill="#FAE3C0"/>
<path d="M260.008 156.008H208V208.017H260.008V156.008Z" fill="#FEFAF3"/>
<path d="M208 156.008H260.008V208.017L208 156.008Z" fill="#DAE1E1"/>
<path d="M312.017 156.008H260.008V208.017H312.017V156.008Z" fill="#638282"/>
<path d="M260.008 156.008L312.017 208.017H260.008V156.008Z" fill="#A8C7CA"/>
<path d="M416 104H312V208H416V104Z" fill="white"/>
<path d="M364.008 104H312V156.008H364.008V104Z" fill="#DBE2E2"/>
<path d="M312 104C325.793 104 339.022 109.479 348.776 119.233C358.529 128.986 364.008 142.215 364.008 156.008H312" fill="#F5C377"/>
<path d="M416.017 104H364.009V156.008H416.017V104Z" fill="#FCF0DD"/>
<path d="M364.009 156.008C364.009 142.215 369.488 128.986 379.241 119.233C388.995 109.479 402.223 104 416.017 104V156.008" fill="#507272"/>
<path d="M364.008 156.008H312V208.017H364.008V156.008Z" fill="#F3BA63"/>
<path d="M312 208.017C325.793 208.017 339.022 202.537 348.776 192.784C358.529 183.03 364.008 169.802 364.008 156.008H312" fill="#D7E5E6"/>
<path d="M416.017 156.008H364.009V208.017H416.017V156.008Z" fill="#F9D9A8"/>
<path d="M364.009 156.008C364.009 169.802 369.488 183.03 379.241 192.784C388.995 202.537 402.223 208.017 416.017 208.017V156.008" fill="#AAC9CB"/>
<path d="M520 104H416V208H520V104Z" fill="#F9DEB3"/>
<path d="M520 104V208H416L520 104Z" fill="#FEF8EF"/>
<path d="M624 104H520V208H624V104Z" fill="white"/>
<path d="M572.008 104H520V156.008H572.008V104Z" fill="#E5EAEA"/>
<path d="M572.008 104V156.008H520L572.008 104Z" fill="#EEF4F5"/>
<path d="M624.017 104H572.008V156.008H624.017V104Z" fill="#A4B6B6"/>
<path d="M572.008 104L624.017 156.008H572.008V104Z" fill="#D8E6E7"/>
<path d="M572.008 156.008H520V208.017H572.008V156.008Z" fill="#718D8D"/>
<path d="M520 156.008H572.008V208.017L520 156.008Z" fill="#75A6AB"/>
<path d="M624.017 156.008H572.008V208.017H624.017V156.008Z" fill="#F9DDB2"/>
<path d="M572.008 156.008H624.017L572.008 208.017V156.008Z" fill="#3F6565"/>
<path d="M104 208H0V312H104V208Z" fill="#A8C7CA"/>
<path d="M104 208H0V312H104V208Z" fill="#B5C4C4"/>
<path d="M208 208H104V312H208V208Z" fill="#F7D299"/>
<path d="M104 208C104 235.583 114.957 262.035 134.461 281.539C153.965 301.043 180.417 312 208 312V208" fill="#F8D8A6"/>
<path d="M312 208H208V312H312V208Z" fill="#DDE9EA"/>
<path d="M312 208H208V312H312V208Z" fill="#F1F6F6"/>
<path d="M416 208H312V312H416V208Z" fill="#9BBFC2"/>
<path d="M312 312C312 284.417 322.957 257.965 342.461 238.461C361.965 218.957 388.417 208 416 208L312 312C339.583 312 366.035 301.043 385.539 281.539C405.043 262.035 416 235.583 416 208" fill="#FFFEFD"/>
<path d="M520 208H416V312H520V208Z" fill="#85B1B5"/>
<path d="M416 312C416 284.417 426.957 257.965 446.461 238.461C465.965 218.957 492.417 208 520 208V312" fill="#7E9797"/>
<path d="M624 208H520V312H624V208Z" fill="white"/>
<path d="M572.008 208H520V260.008H572.008V208Z" fill="#C0CCCC"/>
<path d="M520 260.008C533.793 260.008 547.022 254.529 556.775 244.776C566.529 235.022 572.008 221.793 572.008 208H520" fill="#D9E6E8"/>
<path d="M624.017 208H572.008V260.008H624.017V208Z" fill="#689FA3"/>
<path d="M572.008 208C572.008 221.793 577.488 235.022 587.241 244.776C596.995 254.529 610.223 260.008 624.017 260.008V208" fill="#567777"/>
<path d="M572.008 260.008H520V312.017H572.008V260.008Z" fill="#ACCACC"/>
<path d="M520 260.008C533.793 260.008 547.022 265.488 556.775 275.241C566.529 284.995 572.008 298.223 572.008 312.017H520" fill="#F9DAAB"/>
<path d="M624.017 260.008H572.008V312.017H624.017V260.008Z" fill="#3B8187"/>
<path d="M572.008 312.017C572.008 298.223 577.488 284.995 587.241 275.241C596.995 265.488 610.223 260.008 624.017 260.008V312.017" fill="#649CA1"/>
<path d="M104 312H0V416H104V312Z" fill="#FDF4E5"/>
<path d="M0 312C0 339.583 10.9571 366.035 30.4609 385.539C49.9647 405.043 76.4175 416 104 416V312" fill="#7EADB1"/>
<path d="M208 312H104V416H208V312Z" fill="#F9DBAD"/>
<path d="M104 312C131.583 312 158.035 322.957 177.539 342.461C197.043 361.965 208 388.417 208 416L104 312C104 339.583 114.957 366.035 134.461 385.539C153.965 405.043 180.417 416 208 416" fill="#8DA3A3"/>
<path d="M312 312H208V416H312V312Z" fill="#FBE7C9"/>
<path d="M208 416C208 388.417 218.957 361.965 238.461 342.461C257.965 322.957 284.417 312 312 312L208 416C235.583 416 262.035 405.043 281.539 385.539C301.043 366.035 312 339.583 312 312" fill="#3A8187"/>
<path d="M416 312H312V416H416V312Z" fill="white"/>
<path d="M364.008 312H312V364.008H364.008V312Z" fill="#517373"/>
<path d="M312 312C325.793 312 339.022 317.479 348.776 327.233C358.529 336.986 364.008 350.215 364.008 364.008H312" fill="#F6C983"/>
<path d="M416.017 312H364.009V364.008H416.017V312Z" fill="#658383"/>
<path d="M364.009 364.008C364.009 350.215 369.488 336.986 379.241 327.233C388.995 317.479 402.223 312 416.017 312V364.008" fill="#FBE9CC"/>
<path d="M364.008 364.008H312V416.017H364.008V364.008Z" fill="#F2B352"/>
<path d="M312 416.017C325.793 416.017 339.022 410.537 348.776 400.784C358.529 391.03 364.008 377.802 364.008 364.008H312" fill="#799393"/>
<path d="M416.017 364.008H364.009V416.017H416.017V364.008Z" fill="#FFFFFE"/>
<path d="M364.009 364.008C364.009 377.802 369.488 391.03 379.241 400.784C388.995 410.537 402.223 416.017 416.017 416.017V364.008" fill="#FDF6EA"/>
<path d="M520 312H416V416H520V312Z" fill="white"/>
<path d="M468.008 312H416V364.008H468.008V312Z" fill="#708C8C"/>
<path d="M468.008 312V364.008H416L468.008 312Z" fill="#BDCACA"/>
<path d="M520.017 312H468.008V364.008H520.017V312Z" fill="#F4C070"/>
<path d="M468.008 312L520.017 364.008H468.008V312Z" fill="#E9EDED"/>
<path d="M468.008 364.008H416V416.017H468.008V364.008Z" fill="#F9DAAA"/>
<path d="M416 364.008H468.008L416 416.017V364.008Z" fill="#FCEAD0"/>
<path d="M520.017 364.008H468.008V416.017H520.017V364.008Z" fill="#859D9D"/>
<path d="M468.008 364.008H520.017V416.017L468.008 364.008Z" fill="#FFFDFB"/>
<path d="M624 312H520V416H624V312Z" fill="#6C8888"/>
<path d="M520 312H624L520 416V312Z" fill="#F6CC8C"/>
<path d="M104 416H0V520H104V416Z" fill="#9FB2B2"/>
<path d="M104 416V520H0L104 416Z" fill="#829A9A"/>
<path d="M208 416H104V520H208V416Z" fill="#EEF2F2"/>
<path d="M104 416L208 520H104V416Z" fill="#A8C8CA"/>
<path d="M312 416H208V520H312V416Z" fill="#78A8AD"/>
<path d="M312 416V520H208L312 416Z" fill="#AABBBB"/>
<path d="M416 416H312V520H416V416Z" fill="white"/>
<path d="M364.008 416H312V468.008H364.008V416Z" fill="#FDF6E9"/>
<path d="M338.004 468.008C352.366 468.008 364.008 456.366 364.008 442.004C364.008 427.642 352.366 416 338.004 416C323.642 416 312 427.642 312 442.004C312 456.366 323.642 468.008 338.004 468.008Z" fill="#79AAAE"/>
<path d="M416.017 416H364.009V468.008H416.017V416Z" fill="#486B6B"/>
<path d="M416.017 416H364.009V468.008H416.017V416Z" fill="#416767"/>
<path d="M364.008 468.008H312V520.017H364.008V468.008Z" fill="#9CBFC2"/>
<path d="M338.004 520.017C352.366 520.017 364.008 508.374 364.008 494.013C364.008 479.651 352.366 468.008 338.004 468.008C323.642 468.008 312 479.651 312 494.013C312 508.374 323.642 520.017 338.004 520.017Z" fill="#557777"/>
<path d="M416.017 468.008H364.009V520.017H416.017V468.008Z" fill="#FEFBF6"/>
<path d="M416.017 468.008H364.009V520.017H416.017V468.008Z" fill="#3D8389"/>
<path d="M520 416H416V520H520V416Z" fill="white"/>
<path d="M468.008 416H416V468.008H468.008V416Z" fill="#78A8AC"/>
<path d="M468.008 416V468.008H416L468.008 416Z" fill="#CBD5D5"/>
<path d="M520.017 416H468.008V468.008H520.017V416Z" fill="#F6CB88"/>
<path d="M468.008 416L520.017 468.008H468.008V416Z" fill="#569398"/>
<path d="M468.008 468.008H416V520.017H468.008V468.008Z" fill="white"/>
<path d="M416 468.008H468.008L416 520.017V468.008Z" fill="#FEF8EF"/>
<path d="M520.017 468.008H468.008V520.017H520.017V468.008Z" fill="#F6CB89"/>
<path d="M468.008 468.008H520.017V520.017L468.008 468.008Z" fill="#F8D7A4"/>
<path d="M624 416H520V520H624V416Z" fill="white"/>
<path d="M572.008 416H520V468.008H572.008V416Z" fill="#DAE1E1"/>
<path d="M546.004 468.008C560.366 468.008 572.008 456.366 572.008 442.004C572.008 427.642 560.366 416 546.004 416C531.642 416 520 427.642 520 442.004C520 456.366 531.642 468.008 546.004 468.008Z" fill="#4F8E93"/>
<path d="M624.017 416H572.008V468.008H624.017V416Z" fill="#E8F1F1"/>
<path d="M624.017 416H572.008V468.008H624.017V416Z" fill="#F4BD68"/>
<path d="M572.008 468.008H520V520.017H572.008V468.008Z" fill="#F3BB64"/>
<path d="M546.004 520.017C560.366 520.017 572.008 508.374 572.008 494.013C572.008 479.651 560.366 468.008 546.004 468.008C531.642 468.008 520 479.651 520 494.013C520 508.374 531.642 520.017 546.004 520.017Z" fill="#90B8BB"/>
<path d="M624.017 468.008H572.008V520.017H624.017V468.008Z" fill="#F5C478"/>
<path d="M624.017 468.008H572.008V520.017H624.017V468.008Z" fill="#98ACAC"/>
<path d="M104 520H0V624H104V520Z" fill="white"/>
<path d="M52.0084 520H0V572.008H52.0084V520Z" fill="#718D8D"/>
<path d="M52.0084 520V572.008H0L52.0084 520Z" fill="#4E7171"/>
<path d="M104.017 520H52.0083V572.008H104.017V520Z" fill="#F7CF93"/>
<path d="M52.0083 520L104.017 572.008H52.0083V520Z" fill="#FCEFDA"/>
<path d="M52.0084 572.008H0V624.017H52.0084V572.008Z" fill="#F9DEB5"/>
<path d="M0 572.008H52.0084V624.017L0 572.008Z" fill="#E0EBEC"/>
<path d="M104.017 572.008H52.0083V624.017H104.017V572.008Z" fill="#F8D59F"/>
<path d="M52.0083 572.008H104.017L52.0083 624.017V572.008Z" fill="#E7F0F1"/>
<path d="M208 520H104V624H208V520Z" fill="white"/>
<path d="M156.008 520H104V572.008H156.008V520Z" fill="#C7DBDD"/>
<path d="M104 572.008C104 558.215 109.479 544.986 119.233 535.233C128.986 525.479 142.215 520 156.008 520V572.008" fill="#FAE0B9"/>
<path d="M208.017 520H156.008V572.008H208.017V520Z" fill="#7BAAAE"/>
<path d="M156.008 520C169.802 520 183.03 525.479 192.784 535.233C202.537 544.986 208.017 558.215 208.017 572.008H156.008" fill="#93A8A8"/>
<path d="M156.008 572.008H104V624.017H156.008V572.008Z" fill="#FDF2E2"/>
<path d="M104 572.008C104 585.802 109.479 599.03 119.233 608.784C128.986 618.537 142.215 624.017 156.008 624.017V572.008" fill="#ECF3F3"/>
<path d="M208.017 572.008H156.008V624.017H208.017V572.008Z" fill="#FCEBD2"/>
<path d="M156.008 624.017C169.802 624.017 183.03 618.537 192.784 608.784C202.537 599.03 208.017 585.802 208.017 572.008H156.008" fill="#FDFEFE"/>
<path d="M312 520H208V624H312V520Z" fill="white"/>
<path d="M260.008 520H208V572.008H260.008V520Z" fill="#4C8C92"/>
<path d="M208 520C221.793 520 235.022 525.479 244.776 535.233C254.529 544.986 260.008 558.215 260.008 572.008H208" fill="#F9D9A9"/>
<path d="M312.017 520H260.008V572.008H312.017V520Z" fill="#C7D2D2"/>
<path d="M260.008 572.008C260.008 558.215 265.488 544.986 275.241 535.233C284.995 525.479 298.223 520 312.017 520V572.008" fill="#FCEAD0"/>
<path d="M260.008 572.008H208V624.017H260.008V572.008Z" fill="#FDF3E4"/>
<path d="M208 624.017C221.793 624.017 235.022 618.537 244.776 608.784C254.529 599.03 260.008 585.802 260.008 572.008H208" fill="#607F7F"/>
<path d="M312.017 572.008H260.008V624.017H312.017V572.008Z" fill="#FEF9F1"/>
<path d="M260.008 572.008C260.008 585.802 265.488 599.03 275.241 608.784C284.995 618.537 298.223 624.017 312.017 624.017V572.008" fill="#C8D3D3"/>
<path d="M416 520H312V624H416V520Z" fill="#F6C985"/>
<path d="M312 520L416 624H312V520Z" fill="#F7CF93"/>
<path d="M520 520H416V624H520V520Z" fill="white"/>
<path d="M468.008 520H416V572.008H468.008V520Z" fill="#F3B85E"/>
<path d="M416 572.008C429.793 572.008 443.022 566.529 452.775 556.775C462.529 547.022 468.008 533.793 468.008 520H416" fill="#F6C780"/>
<path d="M520.017 520H468.008V572.008H520.017V520Z" fill="#F8D6A2"/>
<path d="M468.008 520C468.008 533.793 473.488 547.022 483.241 556.775C492.995 566.529 506.223 572.008 520.017 572.008V520" fill="#F7CD8D"/>
<path d="M468.008 572.008H416V624.017H468.008V572.008Z" fill="#4C6F6F"/>
<path d="M416 572.008C429.793 572.008 443.022 577.488 452.775 587.241C462.529 596.995 468.008 610.223 468.008 624.017H416" fill="#5C979C"/>
<path d="M520.017 572.008H468.008V624.017H520.017V572.008Z" fill="#708C8C"/>
<path d="M468.008 624.017C468.008 610.223 473.488 596.995 483.241 587.241C492.995 577.488 506.223 572.008 520.017 572.008V624.017" fill="#559297"/>
<path d="M624 520H520V624H624V520Z" fill="white"/>
<path d="M572.008 520H520V572.008H572.008V520Z" fill="#F8D7A5"/>
<path d="M572.008 520V572.008H520L572.008 520Z" fill="#F5C274"/>
<path d="M624.017 520H572.008V572.008H624.017V520Z" fill="#BDD5D7"/>
<path d="M572.008 520L624.017 572.008H572.008V520Z" fill="#79A9AD"/>
<path d="M572.008 572.008H520V624.017H572.008V572.008Z" fill="#96AAAA"/>
<path d="M520 572.008H572.008L520 624.017V572.008Z" fill="#FBE9CC"/>
<path d="M624.017 572.008H572.008V624.017H624.017V572.008Z" fill="#FFFEFC"/>
<path d="M572.008 572.008H624.017V624.017L572.008 572.008Z" fill="#F6C881"/>
<path d="M104 624H0V728H104V624Z" fill="white"/>
<path d="M52.0084 624H0V676.008H52.0084V624Z" fill="#8CA2A2"/>
<path d="M52.0084 624V676.008H0L52.0084 624Z" fill="#A9BABA"/>
<path d="M104.017 624H52.0083V676.008H104.017V624Z" fill="#8BB5B8"/>
<path d="M52.0083 624L104.017 676.008H52.0083V624Z" fill="#43868C"/>
<path d="M52.0084 676.008H0V728.017H52.0084V676.008Z" fill="#7F9898"/>
<path d="M0 676.008H52.0084V728.017L0 676.008Z" fill="#F9DBAD"/>
<path d="M104.017 676.008H52.0083V728.017H104.017V676.008Z" fill="#F9D9A9"/>
<path d="M52.0083 676.008H104.017L52.0083 728.017V676.008Z" fill="#C5DADC"/>
<path d="M208 624H104V728H208V624Z" fill="#7FADB1"/>
<path d="M208 624H104V728H208V624Z" fill="#F7FAFA"/>
<path d="M312 624H208V728H312V624Z" fill="#A2B4B4"/>
<path d="M208 624C208 651.583 218.957 678.035 238.461 697.539C257.965 717.043 284.417 728 312 728V624" fill="#A3C4C7"/>
<path d="M416 624H312V728H416V624Z" fill="white"/>
<path d="M364.008 624H312V676.008H364.008V624Z" fill="#BBD3D5"/>
<path d="M364.008 624V676.008H312L364.008 624Z" fill="#DEE5E5"/>
<path d="M416.017 624H364.009V676.008H416.017V624Z" fill="#F5C47A"/>
<path d="M364.009 624L416.017 676.008H364.009V624Z" fill="#789393"/>
<path d="M364.008 676.008H312V728.017H364.008V676.008Z" fill="#96AAAA"/>
<path d="M312 676.008H364.008L312 728.017V676.008Z" fill="#779292"/>
<path d="M416.017 676.008H364.009V728.017H416.017V676.008Z" fill="#5F989D"/>
<path d="M364.009 676.008H416.017V728.017L364.009 676.008Z" fill="#B2CED0"/>
<path d="M520 624H416V728H520V624Z" fill="#FAE4C2"/>
<path d="M416 624L520 728H416V624Z" fill="#587979"/>
<path d="M624 624H520V728H624V624Z" fill="white"/>
<path d="M572.008 624H520V676.008H572.008V624Z" fill="#DDE9EB"/>
<path d="M520 624C533.793 624 547.022 629.479 556.775 639.233C566.529 648.986 572.008 662.215 572.008 676.008H520" fill="#F9DEB5"/>
<path d="M624.017 624H572.008V676.008H624.017V624Z" fill="#FBE5C4"/>
<path d="M572.008 676.008C572.008 662.215 577.488 648.986 587.241 639.233C596.995 629.479 610.223 624 624.017 624V676.008" fill="#F6C985"/>
<path d="M572.008 676.008H520V728.017H572.008V676.008Z" fill="#FEFBF5"/>
<path d="M520 728.017C533.793 728.017 547.022 722.537 556.775 712.784C566.529 703.03 572.008 689.802 572.008 676.008H520" fill="#718D8D"/>
<path d="M624.017 676.008H572.008V728.017H624.017V676.008Z" fill="#FAFCFC"/>
<path d="M572.008 676.008C572.008 689.802 577.488 703.03 587.241 712.784C596.995 722.537 610.223 728.017 624.017 728.017V676.008" fill="#FEFEFE"/>
<path d="M104 728H0V832H104V728Z" fill="white"/>
<path d="M52.0084 728H0V780.008H52.0084V728Z" fill="#F2B352"/>
<path d="M0 780.008C13.7935 780.008 27.022 774.529 36.7755 764.775C46.529 755.022 52.0084 741.793 52.0084 728H0" fill="#95AAAA"/>
<path d="M104.017 728H52.0083V780.008H104.017V728Z" fill="#F8D7A4"/>
<path d="M52.0083 728C52.0083 741.793 57.4877 755.022 67.2412 764.775C76.9947 774.529 90.2232 780.008 104.017 780.008V728" fill="#718C8C"/>
<path d="M52.0084 780.008H0V832.017H52.0084V780.008Z" fill="#C5D0D0"/>
<path d="M0 780.008C13.7935 780.008 27.022 785.488 36.7755 795.241C46.529 804.995 52.0084 818.223 52.0084 832.017H0" fill="#849C9C"/>
<path d="M104.017 780.008H52.0083V832.017H104.017V780.008Z" fill="#567777"/>
<path d="M52.0083 832.017C52.0083 818.223 57.4877 804.995 67.2412 795.241C76.9947 785.488 90.2232 780.008 104.017 780.008V832.017" fill="#75A7AB"/>
<path d="M208 728H104V832H208V728Z" fill="white"/>
<path d="M156.008 728H104V780.008H156.008V728Z" fill="#F9DDB1"/>
<path d="M104 780.008C104 766.215 109.479 752.986 119.233 743.233C128.986 733.479 142.215 728 156.008 728V780.008" fill="#DFE6E6"/>
<path d="M208.017 728H156.008V780.008H208.017V728Z" fill="#547676"/>
<path d="M156.008 728C169.802 728 183.03 733.479 192.784 743.233C202.537 752.986 208.017 766.215 208.017 780.008H156.008" fill="#F9DCAF"/>
<path d="M156.008 780.008H104V832.017H156.008V780.008Z" fill="#FBE8CA"/>
<path d="M104 780.008C104 793.802 109.479 807.03 119.233 816.784C128.986 826.537 142.215 832.017 156.008 832.017V780.008" fill="#FDF3E4"/>
<path d="M208.017 780.008H156.008V832.017H208.017V780.008Z" fill="#567777"/>
<path d="M156.008 832.017C169.802 832.017 183.03 826.537 192.784 816.784C202.537 807.03 208.017 793.802 208.017 780.008H156.008" fill="#E2E8E8"/>
<path d="M312 728H208V832H312V728Z" fill="#DDE3E3"/>
<path d="M208 728L312 832H208V728Z" fill="#F6CB89"/>
<path d="M416 728H312V832H416V728Z" fill="white"/>
<path d="M364.008 728H312V780.008H364.008V728Z" fill="#F5C57C"/>
<path d="M312 728C312 741.793 317.479 755.022 327.233 764.775C336.986 774.529 350.215 780.008 364.008 780.008V728" fill="#699FA4"/>
<path d="M416.017 728H364.009V780.008H416.017V728Z" fill="#FBE8CA"/>
<path d="M364.009 780.008C377.802 780.008 391.031 774.529 400.784 764.775C410.538 755.022 416.017 741.793 416.017 728H364.009" fill="#6FA3A7"/>
<path d="M364.008 780.008H312V832.017H364.008V780.008Z" fill="#7BABAF"/>
<path d="M312 832.017C312 818.223 317.479 804.995 327.233 795.241C336.986 785.488 350.215 780.008 364.008 780.008V832.017" fill="#5D979C"/>
<path d="M416.017 780.008H364.009V832.017H416.017V780.008Z" fill="#FBE5C5"/>
<path d="M364.009 780.008C377.802 780.008 391.031 785.488 400.784 795.241C410.538 804.995 416.017 818.223 416.017 832.017H364.009" fill="#F7D093"/>
<path d="M520 728H416V832H520V728Z" fill="white"/>
<path d="M468.008 728H416V780.008H468.008V728Z" fill="#C8DCDE"/>
<path d="M416 780.008C416 766.215 421.479 752.986 431.233 743.233C440.986 733.479 454.215 728 468.008 728V780.008" fill="#FAE3BE"/>
<path d="M520.017 728H468.008V780.008H520.017V728Z" fill="#F8D8A7"/>
<path d="M468.008 728C481.802 728 495.03 733.479 504.784 743.233C514.537 752.986 520.017 766.215 520.017 780.008H468.008" fill="#A2B4B4"/>
<path d="M468.008 780.008H416V832.017H468.008V780.008Z" fill="#799494"/>
<path d="M416 780.008C416 793.802 421.479 807.03 431.233 816.784C440.986 826.537 454.215 832.017 468.008 832.017V780.008" fill="#569398"/>
<path d="M520.017 780.008H468.008V832.017H520.017V780.008Z" fill="#98BDC0"/>
<path d="M468.008 832.017C481.802 832.017 495.03 826.537 504.784 816.784C514.537 807.03 520.017 793.802 520.017 780.008H468.008" fill="#9EB1B1"/>
<path d="M624 728H520V832H572H624V780V728Z" fill="#6CA1A6"/>
<path d="M520 728H624V832L520 728Z" fill="#95AAAA"/>
</svg>
