<svg width="1920" height="1126" viewBox="0 0 1920 1126" fill="none" xmlns="http://www.w3.org/2000/svg">
<path fill-rule="evenodd" clip-rule="evenodd" d="M1920 0H0V1126H1920V874.938C1879.86 875.422 1835.52 861.024 1793.09 818.587L1392.32 417.822L1391.93 418.21C1368.62 394.899 1338.92 379.024 1306.59 372.593C1274.26 366.161 1240.74 369.462 1210.28 382.078C1179.83 394.694 1153.8 416.058 1135.48 443.469C1117.16 470.879 1107.39 503.106 1107.39 536.072C1107.39 569.039 1117.16 601.265 1135.48 628.676C1153.8 656.087 1179.83 677.451 1210.28 690.067C1240.74 702.682 1274.26 705.983 1306.59 699.552C1338.92 693.12 1368.23 678.417 1391.54 655.106L1407.2 639.443L1488.64 557.999L1610.81 680.165L1529.37 761.609L1514.49 776.489C1466.94 824.038 1406.36 856.42 1340.4 869.539C1274.45 882.658 1206.09 875.925 1143.96 850.191C1081.83 824.457 1028.73 780.879 991.372 724.966C954.012 669.053 934.071 603.318 934.071 536.072C934.071 468.827 954.012 403.091 991.372 347.178C1028.73 291.266 1081.83 247.687 1143.96 221.953C1206.09 196.219 1274.45 189.486 1340.4 202.605C1405.99 215.652 1466.27 247.751 1513.7 294.874L1513.7 294.873L1514.49 295.656L1915.25 696.422L1920 701.169V644.068L1909.98 648.099L1850.19 588.296L1850.19 588.649L1822.5 560.962L1822.5 560.959L1793.71 532.166L1794.07 532.159L1781.43 519.555L1737.23 475.684L1752.73 438.033L1752.73 438.03L1752.73 438.029L1850.19 398.16H1850.19L1850.19 398.159L1850.47 398.274L1920 426.719V384.333C1918.21 383.514 1916.4 382.727 1914.57 381.971C1894.32 373.581 1872.6 369.262 1850.68 369.262C1828.75 369.262 1807.04 373.581 1786.78 381.971C1770.78 388.6 1755.93 397.666 1742.76 408.825L1707.61 444.047L1585 321.67L1610.54 296.086L1610.26 295.811C1614.02 292.048 1617.87 288.377 1621.8 284.802L1627.29 279.299L1627.62 279.625C1655.26 255.6 1686.64 236.162 1720.57 222.108C1761.82 205.021 1806.03 196.227 1850.68 196.227C1874.03 196.227 1897.25 198.632 1920 203.369V0ZM1138.86 561.753C1143.61 588.488 1156.31 614.088 1176.97 634.745C1230.6 688.375 1317.55 688.375 1371.18 634.745L1468.28 537.639L1371.18 440.532C1317.55 386.902 1230.6 386.902 1176.97 440.532C1149.42 468.08 1136.02 504.418 1136.77 540.517C1206.83 506.962 1289.02 511.303 1315.58 522.76C1254.36 512.232 1176.97 543.242 1138.86 561.753Z" fill="#161616"/>
</svg>
