<svg width="1920" height="1158" viewBox="0 0 1920 1158" fill="none" xmlns="http://www.w3.org/2000/svg">
<path fill-rule="evenodd" clip-rule="evenodd" d="M1920 0H0V1158H1920V0ZM549 593.094C549 542.977 589.628 502.348 639.746 502.348C689.864 502.348 730.493 542.977 730.493 593.094V665.532C730.493 715.65 689.864 756.278 639.746 756.278C589.628 756.278 549 715.65 549 665.532V593.094ZM607 575.582C607 561.074 618.761 549.313 633.269 549.313H646.005C660.513 549.313 672.274 561.074 672.274 575.582V683.044C672.274 697.552 660.513 709.313 646.005 709.313H633.269C618.761 709.313 607 697.552 607 683.044V575.582ZM276 299.094C276 248.977 316.628 208.348 366.746 208.348C416.864 208.348 457.493 248.977 457.493 299.094V302.5H399.274V281.582C399.274 267.074 387.513 255.313 373.005 255.313H360.269C345.761 255.313 334 267.074 334 281.582V389.044C334 403.552 345.761 415.313 360.269 415.313H373.005C387.513 415.313 399.274 403.552 399.274 389.044V368.5H457.493V371.532C457.493 421.65 416.864 462.279 366.746 462.279C316.628 462.279 276 421.65 276 371.532V299.094ZM924.404 903.551H868V871.998C868 825.528 894.322 795.696 961.38 795.696C1028.44 795.696 1049.94 841.651 1047.87 871.998C1047.75 873.671 1047.65 875.276 1047.56 876.827C1046.53 893.359 1045.89 903.7 1031.57 923.631C1015.9 945.431 936.311 1009.11 936.311 1009.11H1047.87V1048.7H868V1009.11C886.801 990.944 931.799 948.414 961.38 923.631C990.96 898.847 993.342 878.882 990.835 871.998C989.79 861.863 981.685 841.592 957.619 841.592C933.554 841.592 925.448 861.863 924.404 871.998V903.551Z" fill="#161616"/>
</svg>
